<?xml version="1.0" encoding="UTF-8" standalone="no"?>
<!-- Created with Inkscape (http://www.inkscape.org/) -->

<svg
   xmlns:dc="http://purl.org/dc/elements/1.1/"
   xmlns:cc="http://creativecommons.org/ns#"
   xmlns:rdf="http://www.w3.org/1999/02/22-rdf-syntax-ns#"
   xmlns:svg="http://www.w3.org/2000/svg"
   xmlns="http://www.w3.org/2000/svg"
   xmlns:sodipodi="http://sodipodi.sourceforge.net/DTD/sodipodi-0.dtd"
   xmlns:inkscape="http://www.inkscape.org/namespaces/inkscape"
   version="1.1"
   id="svg2"
   width="192"
   height="192"
   viewBox="0 0 192 192"
   sodipodi:docname="bars.svg"
   inkscape:version="0.92.3 (2405546, 2018-03-11)">
  <metadata
     id="metadata8">
    <rdf:RDF>
      <cc:Work
         rdf:about="">
        <dc:format>image/svg+xml</dc:format>
        <dc:type
           rdf:resource="http://purl.org/dc/dcmitype/StillImage" />
        <dc:title />
      </cc:Work>
    </rdf:RDF>
  </metadata>
  <defs
     id="defs6" />
  <sodipodi:namedview
     pagecolor="#ffffff"
     bordercolor="#666666"
     borderopacity="1"
     objecttolerance="10"
     gridtolerance="10"
     guidetolerance="10"
     inkscape:pageopacity="0"
     inkscape:pageshadow="2"
     inkscape:window-width="1851"
     inkscape:window-height="998"
     id="namedview4"
     showgrid="false"
     inkscape:zoom="1.2291667"
     inkscape:cx="-48"
     inkscape:cy="96.000012"
     inkscape:window-x="69"
     inkscape:window-y="27"
     inkscape:window-maximized="1"
     inkscape:current-layer="svg2" />
  <path
     style="fill:#cccccc;stroke-width:1.33333337"
     d="m 34,165.93468 c -1.466667,-0.6178 -4.166667,-2.73724 -6,-4.70985 l -3.333333,-3.58656 V 95.104663 32.571056 l 4.358974,-4.358975 4.358975,-4.358974 h 62.615381 62.615393 l 4.35897,4.358974 4.35897,4.358975 v 62.615384 62.61539 l -4.35798,4.35897 -4.358,4.35897 -60.975343,0.2691 C 64.105569,166.93687 35.466667,166.55249 34,165.93468 Z m 37.999997,-58.74824 v -28 H 64 56 v 28 28 h 8 7.999997 z M 104,95.18644 v -40 h -8.000003 -8 v 40 40 h 8 H 104 Z m 32,24 v -16 h -8 -8 v 16 16 h 8 8 z"
     id="path817"
     inkscape:connector-curvature="0" />
</svg>
